<svg width="17" height="16" viewBox="0 0 17 16" fill="none" xmlns="http://www.w3.org/2000/svg">
<path fill-rule="evenodd" clip-rule="evenodd" d="M13.6398 1.88957C14.1285 1.98757 14.5105 2.36957 14.6085 2.85824C14.6783 3.20838 14.6682 3.56976 14.579 3.91547C14.4898 4.26117 14.3237 4.58229 14.0931 4.85491L12.2591 7.02291L13.5551 11.7769C13.5938 11.9187 13.5944 12.0681 13.5567 12.2101C13.519 12.3521 13.4444 12.4817 13.3405 12.5856L12.4725 13.4536C12.3988 13.5272 12.309 13.5828 12.2101 13.6159C12.1113 13.6489 12.0061 13.6586 11.9029 13.6441C11.7997 13.6297 11.7013 13.5914 11.6154 13.5325C11.5295 13.4735 11.4584 13.3953 11.4078 13.3042L9.44648 9.77357L7.54114 11.3609L7.68114 12.0629C7.70823 12.1975 7.70165 12.3367 7.66199 12.4681C7.62234 12.5995 7.55082 12.7191 7.45381 12.8162L6.34448 13.9249C6.26901 14.0003 6.17672 14.0566 6.07522 14.0893C5.97371 14.122 5.86588 14.1302 5.76062 14.113C5.65536 14.0959 5.55567 14.054 5.46976 13.9908C5.38385 13.9277 5.31417 13.845 5.26648 13.7496L4.42648 12.0716L2.74914 11.2316C2.65376 11.1839 2.57107 11.1142 2.50788 11.0283C2.44469 10.9424 2.40281 10.8427 2.38569 10.7374C2.36857 10.6322 2.37669 10.5243 2.4094 10.4228C2.44211 10.3213 2.49846 10.229 2.57381 10.1536L3.68314 9.04424C3.78021 8.94733 3.89968 8.87588 4.03098 8.83623C4.16228 8.79657 4.30133 8.78993 4.43581 8.81691L5.13781 8.9569L6.72514 7.05224L3.19448 5.09024C3.10337 5.03964 3.02524 4.96859 2.96626 4.88267C2.90728 4.79675 2.86904 4.69832 2.85457 4.59511C2.84009 4.4919 2.84977 4.38675 2.88284 4.28792C2.91591 4.18909 2.97147 4.09928 3.04514 4.02557L3.91314 3.15757C4.01704 3.05367 4.14657 2.9791 4.28858 2.9414C4.4306 2.9037 4.58006 2.90422 4.72181 2.94291L9.47514 4.23891L11.6438 2.40491C11.9164 2.17435 12.2375 2.00828 12.5833 1.91906C12.929 1.82983 13.2903 1.81975 13.6405 1.88957H13.6398ZM13.3118 3.18624C13.1682 3.16719 13.0222 3.17834 12.8832 3.21898C12.7442 3.25962 12.6152 3.32885 12.5045 3.42224L10.0711 5.48157C9.98775 5.55206 9.88847 5.60121 9.78185 5.62479C9.67523 5.64837 9.56448 5.64566 9.45914 5.61691L4.65048 4.30491L4.60581 4.34891L8.06914 6.27291C8.15578 6.32103 8.23072 6.38769 8.28862 6.46812C8.34652 6.54856 8.38596 6.64078 8.4041 6.73821C8.42225 6.83564 8.41867 6.93587 8.39361 7.03176C8.36855 7.12764 8.32264 7.21681 8.25914 7.29291L5.90981 10.1116C5.83224 10.2047 5.73097 10.2752 5.61668 10.3155C5.50239 10.3559 5.37933 10.3647 5.26048 10.3409L4.43581 10.1762L4.16381 10.4482L5.20181 10.9676C5.34375 11.0385 5.45885 11.1536 5.52981 11.2956L6.04981 12.3336L6.32114 12.0616L6.15648 11.2369C6.13272 11.1181 6.14149 10.995 6.18185 10.8807C6.22222 10.7664 6.29268 10.6651 6.38581 10.5876L9.20514 8.23824C9.28124 8.17474 9.37041 8.12883 9.46629 8.10377C9.56218 8.07871 9.66241 8.07513 9.75984 8.09328C9.85727 8.11143 9.94949 8.15086 10.0299 8.20876C10.1104 8.26666 10.177 8.3416 10.2251 8.42824L12.1485 11.8916L12.1925 11.8469L10.8811 7.03824C10.8525 6.93285 10.8499 6.82206 10.8736 6.71545C10.8973 6.60883 10.9465 6.50957 11.0171 6.42624L13.0758 3.99291C13.2658 3.76824 13.3505 3.47557 13.3118 3.18624Z" fill="#0089FF"/>
</svg>
