<svg xmlns="http://www.w3.org/2000/svg" width="16" height="16" fill="none" viewBox="0 0 16 16">
  <path fill="#FACC15" d="m8 11.516-2.766 1.667a.605.605 0 0 1-.384.1.644.644 0 0 1-.35-.133.8.8 0 0 1-.233-.292.583.583 0 0 1-.033-.392l.733-3.15L2.517 7.2a.637.637 0 0 1-.183-.716.712.712 0 0 1 .2-.3.689.689 0 0 1 .366-.15l3.234-.284 1.25-2.966a.598.598 0 0 1 .258-.3.715.715 0 0 1 .358-.1c.122 0 .241.033.358.1a.598.598 0 0 1 .259.3l1.25 2.966 3.233.284a.693.693 0 0 1 .367.15.715.715 0 0 1 .225.675.632.632 0 0 1-.208.341l-2.45 2.117.733 3.15a.584.584 0 0 1-.033.392.794.794 0 0 1-.234.291.65.65 0 0 1-.35.134.6.6 0 0 1-.383-.1L8 11.516Z"/>
</svg>
