<svg xmlns="http://www.w3.org/2000/svg" width="49" height="48" fill="none" viewBox="0 0 49 48">
  <rect width="48" height="48" x=".795" fill="#CFE1FF" rx="24"/>
  <path stroke="#013388" stroke-linecap="round" stroke-linejoin="round" stroke-width="2" d="M15.795 33c3 0 7-1 7-8v-8c0-1.25-.756-2.017-2-2h-4c-1.25 0-2 .75-2 1.972V23c0 1.25.75 2 2 2 1 0 1 0 1 1v1c0 1-1 2-2 2s-1 .008-1 1.031v1.97c0 1 0 1 1 1Zm12 0c3 0 7-1 7-8v-8c0-1.25-.757-2.017-2-2h-4c-1.25 0-2 .75-2 1.972V23c0 1.25.75 2 2 2h.75c0 2.25.25 4-2.75 4v3c0 1 0 1 1 1Z"/>
</svg>
