<svg xmlns="http://www.w3.org/2000/svg" width="48" height="48" fill="none" viewBox="0 0 48 48">
  <rect width="48" height="48" fill="url(#a)" rx="12"/>
  <path stroke="#013388" stroke-linecap="round" stroke-linejoin="round" stroke-width="2" d="M24 34c5.523 0 10-4.477 10-10s-4.477-10-10-10-10 4.477-10 10 4.477 10 10 10Z"/>
  <path stroke="#013388" stroke-linecap="round" stroke-linejoin="round" stroke-width="2" d="M24 30a6 6 0 1 0 0-12 6 6 0 0 0 0 12Z"/>
  <path stroke="#013388" stroke-linecap="round" stroke-linejoin="round" stroke-width="2" d="M24 26a2 2 0 1 0 0-4 2 2 0 0 0 0 4Z"/>
  <defs>
    <linearGradient id="a" x1="0" x2="48" y1="0" y2="48" gradientUnits="userSpaceOnUse">
      <stop stop-color="#0089FF" stop-opacity=".1"/>
      <stop offset="1" stop-color="#013388" stop-opacity=".1"/>
    </linearGradient>
  </defs>
</svg>
