<svg width="218" height="175" viewBox="0 0 218 175" fill="none" xmlns="http://www.w3.org/2000/svg">
<path d="M175.528 17.9535C171.147 21.5838 166.757 25.2175 162.375 28.8478C161.755 29.3611 162.531 30.3509 163.156 29.826C167.538 26.1957 171.927 22.562 176.309 18.9318C176.924 18.4301 176.148 17.4402 175.528 17.9535Z" fill="#002B6B"/>
<path d="M162.182 28.7767C148.543 29.7865 134.896 30.7998 121.258 31.8095C120.531 31.8674 120.575 32.9465 121.263 33.0491C133.259 34.8161 145.25 36.5947 157.245 38.3617C158.048 38.4834 158.202 37.234 157.402 37.1205C145.407 35.3535 133.416 33.5748 121.42 31.8078C121.422 32.221 121.424 32.6342 121.426 33.0474C135.065 32.0376 148.712 31.0244 162.351 30.0146C163.156 29.9617 162.984 28.7157 162.182 28.7767Z" fill="#002B6B"/>
<path d="M175.56 16.0541C152.679 20.6284 129.885 25.6371 107.196 31.0735C106.417 31.2591 106.578 32.5004 107.356 32.3148C130.046 26.8784 152.839 21.8697 175.721 17.2954C176.518 17.1307 176.357 15.8894 175.56 16.0541Z" fill="#002B6B"/>
<path d="M157.365 37.6456C151.706 40.489 146.143 43.5132 140.676 46.7181C139.991 47.1241 140.471 48.2781 141.164 47.8687C146.631 44.6637 152.186 41.6431 157.853 38.7962C158.567 38.4357 158.087 37.2817 157.365 37.6456Z" fill="#002B6B"/>
<path d="M105.86 33.0544C118.06 38.8458 130.542 43.9596 143.308 48.3843C144.066 48.6501 144.544 47.4845 143.778 47.2221C131.015 42.8056 118.534 37.6918 106.33 31.8923C105.605 31.5451 105.135 32.7072 105.86 33.0544Z" fill="#002B6B"/>
<path d="M163.814 30.0393C166.105 35.3936 168.671 40.6022 171.543 45.6712C171.933 46.3628 173.095 45.8794 172.693 45.1831C169.829 40.1107 167.255 34.9056 164.965 29.5513C164.65 28.8087 163.499 29.2968 163.814 30.0393Z" fill="#002B6B"/>
<path d="M157.689 37.9333C162.225 40.7749 166.758 43.6281 171.294 46.4697C171.975 46.8936 172.728 45.9 172.044 45.468C167.507 42.6264 162.975 39.7732 158.438 36.9317C157.766 36.5043 157.005 37.5013 157.689 37.9333Z" fill="#002B6B"/>
<path d="M171.553 45.5129C164.801 43.7362 157.992 42.234 151.121 41.0179C150.32 40.8764 150.175 42.1224 150.964 42.2592C157.733 43.4609 164.441 44.9291 171.092 46.6716C171.861 46.8746 172.335 45.7206 171.553 45.5129Z" fill="#002B6B"/>
<path d="M42.5986 173.958C35.4881 161.463 35.9051 145.65 41.2049 132.29C46.5048 118.931 56.2124 107.746 66.9532 98.2022C70.843 94.7517 74.9231 91.4322 78.0206 87.249C83.764 79.4978 85.5529 69.4379 85.3058 59.7987C85.1175 52.5225 81.8714 43.3949 74.5952 43.2655C69.5128 43.178 65.4541 48.2504 65.1607 53.3239C64.8753 58.3939 67.4692 63.215 70.6576 67.1678C79.596 78.2521 93.4719 84.5653 107.54 86.7241C121.616 88.8794 135.997 87.2566 150.021 84.7736C159.48 83.1012 169.005 80.9961 177.48 76.486C185.956 71.9758 193.374 64.7662 196.255 55.6007C196.815 53.8127 197.167 51.7376 196.129 50.1753C195.295 48.9117 193.783 48.3207 192.361 47.8068C187.2 45.9231 182.028 44.0348 176.867 42.1511" stroke="#002B6B" stroke-width="1.5" stroke-miterlimit="10" stroke-linecap="round" stroke-dasharray="9.74 9.74"/>
</svg>
