<svg xmlns="http://www.w3.org/2000/svg" width="48" height="48" fill="none" viewBox="0 0 48 48">
  <rect width="48" height="48" fill="url(#a)" rx="12"/>
  <path stroke="#013388" stroke-linecap="round" stroke-linejoin="round" stroke-width="2" d="M24 17a2.999 2.999 0 0 0-5.814-1.05 3 3 0 0 0-.183 1.174 3.998 3.998 0 0 0-2.526 5.77 4 4 0 0 0 .556 6.588A4 4 0 1 0 24 30V17Z"/>
  <path stroke="#013388" stroke-linecap="round" stroke-linejoin="round" stroke-width="2" d="M24 17a2.999 2.999 0 0 1 5.814-1.05 3 3 0 0 1 .183 1.174 4 4 0 0 1 2.526 5.77 4 4 0 0 1-.556 6.588 3.999 3.999 0 0 1-6.7 3.433A3.999 3.999 0 0 1 24 29.999V17Z"/>
  <path stroke="#013388" stroke-linecap="round" stroke-linejoin="round" stroke-width="2" d="M27 25a4.5 4.5 0 0 1-3-4 4.5 4.5 0 0 1-3 4m8.599-6.5a3 3 0 0 0 .399-1.375m-11.995 0c.02.484.156.956.398 1.375m-2.924 4.396c.182-.149.378-.282.585-.396m15.877 0c.206.114.401.247.584.396M18 30a4 4 0 0 1-1.967-.516m15.934 0A4 4 0 0 1 30 30"/>
  <defs>
    <linearGradient id="a" x1="0" x2="48" y1="0" y2="48" gradientUnits="userSpaceOnUse">
      <stop stop-color="#0089FF" stop-opacity=".1"/>
      <stop offset="1" stop-color="#013388" stop-opacity=".1"/>
    </linearGradient>
  </defs>
</svg>
