<svg width="25" height="24" viewBox="0 0 25 24" fill="none" xmlns="http://www.w3.org/2000/svg">
<path d="M6.5502 17.7754C6.21686 17.5921 5.95853 17.3464 5.7752 17.0384C5.59186 16.7304 5.5002 16.3844 5.5002 16.0004V11.2004L3.1002 9.87541C2.91686 9.77541 2.78353 9.65041 2.7002 9.50041C2.61686 9.35041 2.5752 9.18374 2.5752 9.00041C2.5752 8.81707 2.61686 8.65041 2.7002 8.50041C2.78353 8.35041 2.91686 8.22541 3.1002 8.12541L11.5502 3.52541C11.7002 3.44207 11.8545 3.37941 12.0132 3.33741C12.1719 3.29541 12.3342 3.27474 12.5002 3.27541C12.6662 3.27607 12.8289 3.29707 12.9882 3.33841C13.1475 3.37974 13.3015 3.44207 13.4502 3.52541L22.9752 8.72541C23.1419 8.80874 23.2712 8.92974 23.3632 9.08841C23.4552 9.24707 23.5009 9.41774 23.5002 9.60041V16.0004C23.5002 16.2837 23.4042 16.5214 23.2122 16.7134C23.0202 16.9054 22.7829 17.0011 22.5002 17.0004C22.2175 16.9997 21.9802 16.9037 21.7882 16.7124C21.5962 16.5211 21.5002 16.2837 21.5002 16.0004V10.1004L19.5002 11.2004V16.0004C19.5002 16.3837 19.4085 16.7297 19.2252 17.0384C19.0419 17.3471 18.7835 17.5927 18.4502 17.7754L13.4502 20.4754C13.3002 20.5587 13.1462 20.6214 12.9882 20.6634C12.8302 20.7054 12.6675 20.7261 12.5002 20.7254C12.3329 20.7247 12.1702 20.7041 12.0122 20.6634C11.8542 20.6227 11.7002 20.5601 11.5502 20.4754L6.5502 17.7754ZM12.5002 12.7004L19.3502 9.00041L12.5002 5.30041L5.6502 9.00041L12.5002 12.7004ZM12.5002 18.7254L17.5002 16.0254V12.2504L13.4752 14.4754C13.3252 14.5587 13.1669 14.6214 13.0002 14.6634C12.8335 14.7054 12.6669 14.7261 12.5002 14.7254C12.3335 14.7247 12.1669 14.7041 12.0002 14.6634C11.8335 14.6227 11.6752 14.5601 11.5252 14.4754L7.5002 12.2504V16.0254L12.5002 18.7254Z" fill="#013388"/>
</svg>
