<svg width="17" height="16" viewBox="0 0 17 16" fill="none" xmlns="http://www.w3.org/2000/svg">
<path d="M11.1663 14V12.6667C11.1663 11.9594 10.8854 11.2811 10.3853 10.781C9.8852 10.281 9.20692 10 8.49967 10H4.49967C3.79243 10 3.11415 10.281 2.61406 10.781C2.11396 11.2811 1.83301 11.9594 1.83301 12.6667V14" stroke="#0089FF" stroke-width="1.33333" stroke-linecap="round" stroke-linejoin="round"/>
<path d="M6.49967 7.33333C7.97243 7.33333 9.16634 6.13943 9.16634 4.66667C9.16634 3.19391 7.97243 2 6.49967 2C5.02692 2 3.83301 3.19391 3.83301 4.66667C3.83301 6.13943 5.02692 7.33333 6.49967 7.33333Z" stroke="#0089FF" stroke-width="1.33333" stroke-linecap="round" stroke-linejoin="round"/>
<path d="M15.167 13.9993V12.6659C15.1666 12.0751 14.9699 11.5011 14.6079 11.0341C14.2459 10.5672 13.7391 10.2336 13.167 10.0859" stroke="#0089FF" stroke-width="1.33333" stroke-linecap="round" stroke-linejoin="round"/>
<path d="M11.167 2.08594C11.7406 2.2328 12.249 2.5664 12.6121 3.03414C12.9752 3.50188 13.1722 4.07716 13.1722 4.66927C13.1722 5.26138 12.9752 5.83666 12.6121 6.3044C12.249 6.77214 11.7406 7.10574 11.167 7.2526" stroke="#0089FF" stroke-width="1.33333" stroke-linecap="round" stroke-linejoin="round"/>
</svg>
