<svg width="113" height="115" viewBox="0 0 113 115" fill="none" xmlns="http://www.w3.org/2000/svg">
<path d="M40.0895 20.4856C36.8784 37.799 39.3227 55.3682 44.5289 72.0437C47.5195 81.628 52.6631 103.431 65.9652 103.603C79.527 103.776 81.8957 86.1013 81.5136 76.1545C80.881 60.1332 76.245 43.9777 67.4825 30.482C63.1926 23.8671 57.5116 16.3005 50.4876 12.4146C44.2904 8.9851 39.7808 12.4536 36.4043 17.8721C35.988 18.5464 37.0376 19.1679 37.457 18.5058C49.8914 -1.42306 70.9444 37.3674 74.7581 47.9149C79.4172 60.8212 83.2117 78.029 78.6262 91.4284C77.3257 95.2284 74.9289 99.0024 71.2706 100.936C64.2138 104.648 58.5832 100.157 55.0155 94.569C50.6649 87.7617 48.1244 79.4148 45.7295 71.7584C40.5931 55.312 38.1028 37.9229 41.2677 20.8416C41.4124 20.0661 40.2342 19.7101 40.0895 20.4856Z" fill="#013388"/>
<path d="M15.7919 62.4349C28.8687 70.3699 43.5192 75.5528 58.82 76.7728C71.1957 77.7594 88.8694 76.9368 98.8131 68.3949C110.115 58.6855 99.3927 46.39 89.0743 42.0382C74.062 35.7126 56.9323 36.3222 41.2161 39.2273C31.3801 41.0479 1.9119 48.4459 11.004 64.1561C11.3939 64.8377 12.4636 64.2347 12.0737 63.5531C5.12288 51.5534 25.2491 44.3613 33.623 42.1384C41.2178 40.122 49.1931 38.9063 57.0328 38.5028C65.6147 38.0575 74.2896 38.7179 82.5741 41.097C90.8708 43.4731 104.625 49.6441 102.154 60.5333C98.7413 75.5743 71.8573 76.4533 59.7929 75.6229C44.3758 74.5616 29.5878 69.3999 16.4164 61.3975C15.7422 60.9812 15.1207 62.0307 15.7919 62.4349Z" fill="#013388"/>
<path d="M26.3727 90.8767C33.9742 72.1223 41.9176 53.4388 51.7927 35.7415C56.4898 27.3352 61.5656 18.9387 68.3768 12.0442C72.7718 7.59226 80.8854 1.71055 85.775 9.53868C88.657 14.142 87.3951 20.7608 86.2641 25.6086C82.3329 42.53 73.9304 59.8356 64.5853 74.3913C59.6817 82.0185 53.9787 89.1437 47.2725 95.2596C43.7619 98.467 38.6425 103.345 33.4522 102.559C23.1266 100.998 29.8513 86.5485 31.6721 81.9705C31.9572 81.238 30.7851 80.9065 30.4969 81.6267C28.5934 86.3939 22.7561 97.5744 27.8219 101.934C32.4761 105.941 39.5532 102.938 43.6865 99.8869C58.5444 88.9307 68.764 71.6278 76.3681 55.1822C80.2744 46.7259 84.0773 37.958 86.6498 28.9897C88.4672 22.6741 90.4924 14.1662 86.3846 8.28447C77.1331 -4.98598 61.7544 17.2961 57.2335 24.2184C43.8149 44.7291 34.3653 67.8995 25.1822 90.5237C24.9123 91.2654 26.0845 91.5969 26.3727 90.8767Z" fill="#013388"/>
<path d="M55.0643 53.872C51.9477 59.0832 61.4434 64.2492 63.4124 58.5965C64.2681 56.1395 62.6301 52.8359 60.0352 52.2609C57.1686 51.6367 54.4132 54.2802 53.4446 56.7005C53.1472 57.436 54.3194 57.7675 54.6198 57.0442C55.2941 55.3718 56.6734 54.0301 58.4392 53.5656C60.7885 52.943 62.913 55.5939 62.36 57.859C61.306 62.2335 53.7718 58.4355 56.1169 54.5057C56.518 53.8223 55.4684 53.2008 55.0643 53.872Z" fill="#013388"/>
<path d="M10.8184 63.2035C10.9338 65.6528 13.0925 67.9708 15.5903 68.1028C18.2317 68.2381 20.0313 65.5596 19.1799 63.1244C18.3954 60.8542 15.3961 59.0694 13.0464 59.9515C10.5195 60.9035 10.4139 64.1343 11.7913 66.0755C12.2454 66.7022 13.3182 66.1114 12.8611 65.4725C11.9285 64.1732 11.6174 61.8763 13.4295 61.1278C15.0643 60.4492 17.1786 61.7533 17.9063 63.2202C18.8197 65.0691 17.3292 67.2687 15.2501 66.8381C13.6107 66.5058 12.1259 64.9156 12.046 63.2359C12.0044 62.4418 10.7768 62.4094 10.8184 63.2035Z" fill="#013388"/>
<path d="M40.5679 98.4569C40.5 101.004 42.3197 103.315 44.7893 103.908C46.9171 104.43 49.389 103.466 49.7224 101.1C50.034 98.9597 47.9427 96.599 45.719 96.8919C43.584 97.1757 43.3085 99.6703 44.4576 101.11C44.9484 101.728 45.823 100.862 45.3353 100.257C44.7166 99.4892 44.8377 98.1487 46.0532 98.0803C46.6548 98.0476 47.3657 98.5068 47.7651 98.9135C48.9452 100.112 48.6979 102.094 47.0174 102.693C44.405 103.614 41.7124 101.027 41.7803 98.4801C41.8181 97.6922 40.5936 97.6721 40.5679 98.4569Z" fill="#013388"/>
<path d="M84.6363 23.705C82.7421 28.3531 92.1046 38.8844 94.6358 33.0402C95.7175 30.5529 93.7211 25.9112 91.6683 24.3324C88.8162 22.1477 86.1375 24.5256 84.6406 26.9603C84.2243 27.6346 85.2738 28.2561 85.6932 27.594C87.2575 25.0648 90.0665 23.3161 92.0526 26.663C92.4821 27.3996 92.8289 28.2735 93.1026 29.0618C93.2821 29.5232 93.4219 29.9815 93.5403 30.458C94.0151 31.4818 93.6965 32.1837 92.5813 32.5515C91.9537 33.5767 91.242 33.6886 90.4461 32.8873C89.9245 32.5109 89.4334 32.101 88.9822 31.6422C88.4546 31.1376 87.9669 30.5841 87.5127 30.0093C86.2021 28.3369 84.9196 26.2034 85.7992 24.0518C86.1088 23.3132 84.9367 22.9817 84.6363 23.705Z" fill="#013388"/>
<path d="M37.9162 15.7071C33.9344 17.5395 36.9037 22.9645 39.1789 24.9681C41.6217 27.1247 45.1128 26.7635 45.1826 22.9708C45.2261 20.4301 43.0247 14.0748 39.5023 14.9368C35.65 15.8808 36.5757 21.8005 37.0541 24.5099C37.1934 25.2797 38.3787 24.9853 38.2394 24.2155C37.9184 22.401 37.5123 20.3483 38.0067 18.5259C38.4643 16.8164 39.6111 15.6882 41.399 16.8269C42.3204 17.4024 43.0171 19.1106 43.3882 20.0822C43.7624 21.0661 44.1788 22.3768 43.9085 23.43C43.4046 25.4753 41.5603 25.3107 40.2305 24.2398C38.5102 22.8508 35.3625 18.2227 38.5285 16.7616C39.2283 16.445 38.6283 15.3875 37.9162 15.7071Z" fill="#013388"/>
<path d="M74.938 87.1293C75.7199 91.1126 79.2205 94.6023 83.2719 95.2435C86.8776 95.8139 89.9684 93.5281 88.6182 89.7638C87.3622 86.2745 83.4513 81.4986 79.1646 82.9397C74.6274 84.4689 76.5519 90.1794 78.4136 92.9734C78.8463 93.6184 79.9191 93.0275 79.4834 92.3703C77.8685 89.9432 75.762 83.3957 81.1083 84.0267C83.9692 84.3669 87.2957 87.8349 87.6608 90.7671C88.1767 94.9852 83.1907 94.4463 80.7314 93.0593C78.3911 91.7335 76.6415 89.4955 76.1141 86.8501C75.9718 86.0681 74.7864 86.3625 74.938 87.1293Z" fill="#013388"/>
</svg>
