<svg width="32" height="32" viewBox="0 0 32 32" fill="none" xmlns="http://www.w3.org/2000/svg">
<path d="M13.6573 21.7535L8 16.0948L9.88533 14.2095L13.6573 17.9802L21.1987 10.4375L23.0853 12.3242L13.6573 21.7535Z" fill="#013388"/>
<path fill-rule="evenodd" clip-rule="evenodd" d="M1.33398 16.0007C1.33398 7.90065 7.90065 1.33398 16.0007 1.33398C24.1007 1.33398 30.6673 7.90065 30.6673 16.0007C30.6673 24.1007 24.1007 30.6673 16.0007 30.6673C7.90065 30.6673 1.33398 24.1007 1.33398 16.0007ZM16.0007 28.0007C14.4248 28.0007 12.8644 27.6903 11.4085 27.0872C9.95254 26.4842 8.62967 25.6002 7.51537 24.4859C6.40107 23.3716 5.51715 22.0488 4.9141 20.5929C4.31104 19.1369 4.00065 17.5765 4.00065 16.0007C4.00065 14.4248 4.31104 12.8644 4.9141 11.4085C5.51715 9.95254 6.40107 8.62967 7.51537 7.51537C8.62967 6.40107 9.95254 5.51715 11.4085 4.9141C12.8644 4.31104 14.4248 4.00065 16.0007 4.00065C19.1832 4.00065 22.2355 5.26493 24.4859 7.51537C26.7364 9.76581 28.0007 12.8181 28.0007 16.0007C28.0007 19.1832 26.7364 22.2355 24.4859 24.4859C22.2355 26.7364 19.1832 28.0007 16.0007 28.0007Z" fill="#013388"/>
</svg>
